<svg xmlns="http://www.w3.org/2000/svg" xmlns:xlink="http://www.w3.org/1999/xlink" preserveAspectRatio="xMidYMid" width="17.531" height="17.406" viewBox="0 0 17.531 17.406">
  <defs>
    <style>
      .cls-1 {
        fill: #5087f8;
        fill-rule: evenodd;
      }
    </style>
  </defs>
  <path d="M16.441,13.053 L6.576,13.053 L2.192,17.406 L2.192,11.964 L2.192,3.258 C2.192,2.657 2.683,2.170 3.288,2.170 L16.441,2.170 C17.046,2.170 17.537,2.657 17.537,3.258 L17.537,11.964 C17.537,12.565 17.046,13.053 16.441,13.053 ZM16.441,3.258 L3.288,3.258 L3.288,14.685 L6.028,11.964 L16.441,11.964 L16.441,3.258 ZM1.096,1.081 L1.096,12.509 L1.096,14.141 L0.000,15.229 L0.000,9.788 L0.000,1.081 C0.000,0.480 0.491,-0.007 1.096,-0.007 L14.249,-0.007 C14.854,-0.007 15.345,0.480 15.345,1.081 L14.249,1.081 L1.096,1.081 Z" class="cls-1"/>
</svg>